<svg xmlns="http://www.w3.org/2000/svg" version="1.1" viewBox="-5.0 -10.0 110.0 110.0">
    <path d="m79.844 18.125h-17.199c-1.0078-6.1992-6.3633-10.754-12.645-10.754s-11.637 4.5547-12.645 10.754h-17.199c-3.0859 0.17188-5.457 2.8086-5.3008 5.8945v6.4805c0 0.55078 0.21875 1.082 0.60938 1.4727s0.92188 0.60938 1.4727 0.60938h4.293v50.668c0 5.1758 4.1953 9.375 9.375 9.375h38.789c5.1797 0 9.375-4.1992 9.375-9.375v-50.668h4.293c0.55078 0 1.082-0.21875 1.4727-0.60938s0.60938-0.92188 0.60938-1.4727v-6.4805c0.15625-3.0859-2.2148-5.7227-5.3008-5.8945zm-29.844-6.582c3.9805 0 7.4492 2.7188 8.4062 6.582h-16.812c0.95703-3.8633 4.4258-6.582 8.4062-6.582zm24.605 71.707c0 1.3828-0.55078 2.707-1.5273 3.6836-0.97656 0.97656-2.3008 1.5234-3.6836 1.5234h-38.789c-2.8789 0-5.2109-2.332-5.2109-5.207v-50.668h49.211zm6.375-54.832h-61.961v-4.3984c0-0.98828 0.60547-1.7305 1.1367-1.7305h59.688c0.53125 0 1.1367 0.73828 1.1367 1.7305zm-44.523 51.688v-39.168c0-1.1523 0.93359-2.082 2.0859-2.082 1.1484 0 2.082 0.92969 2.082 2.082v39.168c0 1.1484-0.93359 2.082-2.082 2.082-1.1523 0-2.0859-0.93359-2.0859-2.082zm11.457 0 0.003907-39.168c0-1.1523 0.92969-2.082 2.082-2.082s2.082 0.92969 2.082 2.082v39.168c0 1.1484-0.92969 2.082-2.082 2.082s-2.082-0.93359-2.082-2.082zm11.457 0 0.003906-39.168c0-1.1523 0.93359-2.082 2.082-2.082 1.1523 0 2.0859 0.92969 2.0859 2.082v39.168c0 1.1484-0.93359 2.082-2.0859 2.082-1.1484 0-2.082-0.93359-2.082-2.082z"/>
</svg>