<svg xmlns="http://www.w3.org/2000/svg" version="1.1" viewBox="-5.0 -10.0 110.0 110.0">
    <path d="m27.824 90c-2.4688 0-4.9336-0.64844-7.1836-1.9492-4.5-2.5977-7.1836-7.25-7.1836-12.445l-0.003906-51.211c0-5.1953 2.6875-9.8477 7.1836-12.445 4.5-2.5977 9.8711-2.5977 14.371 0l44.352 25.605c4.5 2.5977 7.1836 7.25 7.1836 12.445s-2.6875 9.8477-7.1836 12.445l-44.352 25.605c-2.25 1.3008-4.7188 1.9492-7.1836 1.9492zm0-73.836c-1.4102 0-2.8203 0.37109-4.1094 1.1133-2.5742 1.4844-4.1094 4.1445-4.1094 7.1172v51.215c0 2.9727 1.5352 5.6328 4.1094 7.1172 2.5703 1.4844 5.6445 1.4844 8.2188 0l44.352-25.605c2.5742-1.4844 4.1094-4.1445 4.1094-7.1172 0-2.9688-1.5352-5.6328-4.1094-7.1172l-44.352-25.609c-1.2891-0.74219-2.6992-1.1133-4.1094-1.1133z"/>
</svg>